<?xml version="1.0" encoding="utf-8"?>
<!-- Designed by Vexels.com - 2020 All Rights Reserved - https://vexels.com/terms-and-conditions/  -->
<svg version="1.1" id="Layer_1" xmlns="http://www.w3.org/2000/svg" xmlns:xlink="http://www.w3.org/1999/xlink" x="0px" y="0px"
	 viewBox="0 0 1200 1200" enable-background="new 0 0 1200 1200" xml:space="preserve">
<g>
	<path fill="#F15F43" d="M507.41,617.594c8.316,2.904,14.88-0.994,19.158-7c31.633-44.407,62.652-89.253,94.279-133.664
		c22.997-32.292,45.298-65.217,70.319-95.894c30.166-36.984,67.822-65.025,112.388-83.445c21.026-8.69,42.67-13.489,65.189-12.813
		c43.23,1.297,75.838,20.359,95.483,59.788c10.079,20.23,15.97,41.321,17.044,64.145c2.138,45.412-4.612,89.262-23.016,130.691
		c-11.042,24.856-23.796,49.157-37.928,72.402c-125.044,205.693-86.355,157.93-239.941,319.86
		c-47.761,50.355-94.922,101.282-142.92,151.408c-15.391,16.074-32.132,30.954-49.09,45.4
		c-17.692,15.072-39.402,20.961-62.153,21.496c-32.089,0.754-57.711-12.3-75.442-39.449c-12.412-19.004-20.52-39.913-21.843-62.56
		c-3.632-62.207-18.592-122.354-30.86-183.095c-11.767-58.263-21.766-116.924-24.989-176.559
		c-1.332-24.646-6.429-49.07-9.281-73.657c-3.423-29.505-9.349-59.134-8.776-88.605c1.449-74.488,12.046-148.255,25.13-221.522
		c6.17-34.546,20.65-66.052,41.872-94.421c16.93-22.63,38.649-38.192,65.032-47.529c48.962-17.328,103.526,12.906,115.588,63.929
		c0.57,2.413,1.323,4.844,1.441,7.294c1.302,26.967-0.898,54.668,4.692,80.701c5.35,24.915,6.1,48.771,3.624,73.575
		c-1.719,17.223-3.07,34.693-2.17,51.927c2.853,54.651,0.299,109.031-5.164,163.384C504.611,608.021,506.584,612.907,507.41,617.594
		z"/>
	<path fill="#120B09" d="M398.606,1033.199c-4.65-1.168-10.324-1.018-13.79-3.71c-30.3-23.534-49.264-55.338-63.114-90.328
		c-46.687-117.943-79.738-239.501-96.052-365.464c-7.342-56.689-8.82-113.541-5.893-170.562
		c3.853-75.062,21.715-146.944,49.796-216.397c13.051-32.276,29.547-62.682,50.913-90.419
		c12.355-16.039,27.045-28.756,44.988-38.025c24.482-12.648,48.303-10.721,70.102,5.018c20.164,14.559,36.951,32.681,49.959,54.314
		c29.761,49.496,48.574,102.758,57.96,159.664c6.077,36.845,7.714,73.83,7.146,111.064c-0.187,12.249,0.523,24.637,2.412,36.712
		c0.538,3.44,6.667,6.005,10.361,9.079c17.539-15.164,23.627-37.357,34.331-56.609c25.432-45.741,54.745-88.477,92.265-125.237
		c35.907-35.18,76.071-63.322,125.392-76.692c14.667-3.976,29.418-5.394,44.056-1.98c9.504,2.216,19.655,5.227,27.384,10.826
		c24.556,17.787,43.229,40.192,51.874,70.353c16.195,56.504,13.31,112.732-0.851,168.889
		c-9.754,38.681-25.919,74.908-44.488,110.067c-27.881,52.791-61.551,101.807-99.286,147.925
		c-29.799,36.42-60.845,71.821-91.475,107.557c-29.02,33.857-58.009,67.745-87.423,101.258
		c-16.326,18.601-33.282,36.663-50.324,54.617c-35.797,37.714-71.935,75.104-107.695,112.854
		c-6.918,7.304-13.713,14.239-26.334,16.555c-4.388-2.805-11.91-5.416-15.976-10.691c-7.497-9.725-12.966-21.016-19.279-31.654
		c9.357-2.617,18.714-5.233,29.032-8.118c39.759-42.884,81.488-85.215,120.148-130.183
		c67.775-78.831,133.76-159.204,200.311-239.084c30.167-36.209,57.195-74.719,81.47-115.101
		c21.736-36.161,40.946-73.585,54.118-113.85c14.058-42.974,19.07-86.867,14.29-131.931c-2.164-20.401-10.468-38.09-22.298-54.256
		c-7.71-10.535-19.086-16.623-31.867-16.204c-12.137,0.397-24.816,2.257-36.107,6.517c-20.95,7.905-39.225,20.667-56.18,35.56
		c-41.447,36.406-74.444,79.343-100.623,127.66c-30.768,56.787-55.946,115.948-75.18,177.655
		c-7.36,23.612-14.944,47.219-23.971,70.222c-4.859,12.384-16.288,17.917-30.049,17.928c-16.768-4.459-23.995-17.914-24.746-33.123
		c-1.829-37.041-2.512-74.2-1.932-111.284c0.697-44.551,3.505-89.065,4.802-133.612c1.301-44.716-2.241-89.078-13.065-132.612
		c-12.105-48.683-33.27-93.18-64.222-132.673c-8.035-10.253-20.119-13.682-37.458-9.807c-7.833,7.816-19.462,17.23-28.35,28.756
		c-16.705,21.667-28.781,46.207-38.931,71.604c-27.799,69.564-45.381,141.471-48.206,216.546
		c-1.956,51.996-0.852,103.902,5.557,155.678c10.961,88.558,27.813,175.873,51.032,262.071
		C349.629,938.887,354.922,953.958,398.606,1033.199z"/>
</g>
</svg>
